<svg width="239" height="120" viewBox="0 0 239 120" fill="none" xmlns="http://www.w3.org/2000/svg">
<g opacity="0.5">
<circle cx="2.5" cy="2.5" r="2.5" fill="#FEFEFE"/>
<ellipse cx="2.5" cy="25" rx="2.5" ry="2" fill="#FEFEFE"/>
<circle cx="2.5" cy="47.5" r="2.5" fill="#FEFEFE"/>
<circle cx="2.5" cy="72.5" r="2.5" fill="#FEFEFE"/>
<ellipse cx="2.5" cy="95" rx="2.5" ry="2" fill="#FEFEFE"/>
<circle cx="2.5" cy="117.5" r="2.5" fill="#FEFEFE"/>
<ellipse cx="26" cy="2.5" rx="2" ry="2.5" fill="#FEFEFE"/>
<circle cx="26" cy="25" r="2" fill="#FEFEFE"/>
<ellipse cx="26" cy="47.5" rx="2" ry="2.5" fill="#FEFEFE"/>
<ellipse cx="26" cy="72.5" rx="2" ry="2.5" fill="#FEFEFE"/>
<circle cx="26" cy="95" r="2" fill="#FEFEFE"/>
<ellipse cx="26" cy="117.5" rx="2" ry="2.5" fill="#FEFEFE"/>
<ellipse cx="50" cy="2.5" rx="2" ry="2.5" fill="#FEFEFE"/>
<circle cx="50" cy="25" r="2" fill="#FEFEFE"/>
<ellipse cx="50" cy="47.5" rx="2" ry="2.5" fill="#FEFEFE"/>
<ellipse cx="50" cy="72.5" rx="2" ry="2.5" fill="#FEFEFE"/>
<circle cx="50" cy="95" r="2" fill="#FEFEFE"/>
<ellipse cx="50" cy="117.5" rx="2" ry="2.5" fill="#FEFEFE"/>
<circle cx="73.5" cy="2.5" r="2.5" fill="#FEFEFE"/>
<ellipse cx="73.5" cy="25" rx="2.5" ry="2" fill="#FEFEFE"/>
<circle cx="73.5" cy="47.5" r="2.5" fill="#FEFEFE"/>
<circle cx="73.5" cy="72.5" r="2.5" fill="#FEFEFE"/>
<ellipse cx="73.5" cy="95" rx="2.5" ry="2" fill="#FEFEFE"/>
<circle cx="73.5" cy="117.5" r="2.5" fill="#FEFEFE"/>
<circle cx="97.5" cy="2.5" r="2.5" fill="#FEFEFE"/>
<ellipse cx="97.5" cy="25" rx="2.5" ry="2" fill="#FEFEFE"/>
<circle cx="97.5" cy="47.5" r="2.5" fill="#FEFEFE"/>
<circle cx="97.5" cy="72.5" r="2.5" fill="#FEFEFE"/>
<ellipse cx="97.5" cy="95" rx="2.5" ry="2" fill="#FEFEFE"/>
<circle cx="97.5" cy="117.5" r="2.5" fill="#FEFEFE"/>
<ellipse cx="121" cy="2.5" rx="2" ry="2.5" fill="#FEFEFE"/>
<ellipse cx="145" cy="2.5" rx="2" ry="2.5" fill="#FEFEFE"/>
<circle cx="168.5" cy="2.5" r="2.5" fill="#FEFEFE"/>
<circle cx="192.5" cy="2.5" r="2.5" fill="#FEFEFE"/>
<ellipse cx="216" cy="2.5" rx="2" ry="2.5" fill="#FEFEFE"/>
<ellipse cx="240" cy="2.5" rx="2" ry="2.5" fill="#FEFEFE"/>
<circle cx="121" cy="25" r="2" fill="#FEFEFE"/>
<circle cx="145" cy="25" r="2" fill="#FEFEFE"/>
<ellipse cx="168.5" cy="25" rx="2.5" ry="2" fill="#FEFEFE"/>
<ellipse cx="192.5" cy="25" rx="2.5" ry="2" fill="#FEFEFE"/>
<circle cx="216" cy="25" r="2" fill="#FEFEFE"/>
<circle cx="240" cy="25" r="2" fill="#FEFEFE"/>
<ellipse cx="121" cy="47.5" rx="2" ry="2.5" fill="#FEFEFE"/>
<ellipse cx="145" cy="47.5" rx="2" ry="2.5" fill="#FEFEFE"/>
<circle cx="168.5" cy="47.5" r="2.5" fill="#FEFEFE"/>
<circle cx="192.5" cy="47.5" r="2.5" fill="#FEFEFE"/>
<ellipse cx="216" cy="47.5" rx="2" ry="2.5" fill="#FEFEFE"/>
<ellipse cx="240" cy="47.5" rx="2" ry="2.5" fill="#FEFEFE"/>
<ellipse cx="121" cy="72.5" rx="2" ry="2.5" fill="#FEFEFE"/>
<ellipse cx="145" cy="72.5" rx="2" ry="2.5" fill="#FEFEFE"/>
<circle cx="168.5" cy="72.5" r="2.5" fill="#FEFEFE"/>
<circle cx="192.5" cy="72.5" r="2.5" fill="#FEFEFE"/>
<ellipse cx="216" cy="72.5" rx="2" ry="2.5" fill="#FEFEFE"/>
<ellipse cx="240" cy="72.5" rx="2" ry="2.5" fill="#FEFEFE"/>
<circle cx="121" cy="95" r="2" fill="#FEFEFE"/>
<circle cx="145" cy="95" r="2" fill="#FEFEFE"/>
<ellipse cx="168.5" cy="95" rx="2.5" ry="2" fill="#FEFEFE"/>
<ellipse cx="192.5" cy="95" rx="2.5" ry="2" fill="#FEFEFE"/>
<circle cx="216" cy="95" r="2" fill="#FEFEFE"/>
<circle cx="240" cy="95" r="2" fill="#FEFEFE"/>
<ellipse cx="121" cy="117.5" rx="2" ry="2.5" fill="#FEFEFE"/>
<ellipse cx="145" cy="117.5" rx="2" ry="2.5" fill="#FEFEFE"/>
<circle cx="168.5" cy="117.5" r="2.5" fill="#FEFEFE"/>
<circle cx="192.5" cy="117.5" r="2.5" fill="#FEFEFE"/>
<ellipse cx="216" cy="117.5" rx="2" ry="2.5" fill="#FEFEFE"/>
<ellipse cx="240" cy="117.5" rx="2" ry="2.5" fill="#FEFEFE"/>
</g>
</svg>
