<svg width="494" height="125" viewBox="0 0 494 125" fill="none" xmlns="http://www.w3.org/2000/svg">
<path d="M177 12V7H182" stroke="#252525"/>
<path d="M331 103V108H326" stroke="#252525"/>
<g opacity="0.1">
<mask id="mask0_929_613" style="mask-type:alpha" maskUnits="userSpaceOnUse" x="-7" y="-7" width="501" height="132">
<line x1="-3.01037" y1="121.738" x2="122.954" y2="-0.521272" stroke="white" stroke-width="8.6446"/>
<line x1="21.6888" y1="121.738" x2="147.653" y2="-0.521272" stroke="white" stroke-width="8.6446"/>
<line x1="46.3881" y1="121.738" x2="172.352" y2="-0.521272" stroke="white" stroke-width="8.6446"/>
<line x1="71.0853" y1="121.738" x2="197.049" y2="-0.521272" stroke="white" stroke-width="8.6446"/>
<line x1="95.7845" y1="121.738" x2="221.749" y2="-0.521272" stroke="white" stroke-width="8.6446"/>
<line x1="120.484" y1="121.738" x2="246.448" y2="-0.521272" stroke="white" stroke-width="8.6446"/>
<line x1="145.183" y1="121.738" x2="272.033" y2="-1.38139" stroke="white" stroke-width="8.6446"/>
<line x1="170.767" y1="121.738" x2="298.503" y2="-2.24149" stroke="white" stroke-width="8.6446"/>
<line x1="197.24" y1="121.738" x2="325.862" y2="-3.1016" stroke="white" stroke-width="8.6446"/>
<line x1="224.597" y1="121.738" x2="353.22" y2="-3.1016" stroke="white" stroke-width="8.6446"/>
<line x1="251.954" y1="121.738" x2="380.577" y2="-3.1016" stroke="white" stroke-width="8.6446"/>
<line x1="279.31" y1="121.738" x2="407.933" y2="-3.1016" stroke="white" stroke-width="8.6446"/>
<line x1="306.667" y1="121.738" x2="435.29" y2="-3.1016" stroke="white" stroke-width="8.6446"/>
<line x1="334.025" y1="121.738" x2="462.647" y2="-3.1016" stroke="white" stroke-width="8.6446"/>
<line x1="361.382" y1="121.738" x2="490.005" y2="-3.1016" stroke="white" stroke-width="8.6446"/>
</mask>
<g mask="url(#mask0_929_613)">
<rect x="179.066" y="9.98999" width="149.428" height="96.3255" fill="#252525"/>
</g>
</g>
</svg>
